<?xml version="1.0" encoding="utf-8"?>
<!-- Generator: Adobe Illustrator 22.0.1, SVG Export Plug-In . SVG Version: 6.00 Build 0)  -->
<svg version="1.1" id="Capa_1" xmlns="http://www.w3.org/2000/svg" xmlns:xlink="http://www.w3.org/1999/xlink" x="0px" y="0px"
	 viewBox="0 0 233.3 73.7" style="enable-background:new 0 0 233.3 73.7;" xml:space="preserve">
<style type="text/css">
	.Sombra_x0020_paralela{fill:none;}
	.Resplandor_x0020_externo_x0020_5_x0020_pt_x002E_{fill:none;}
	.Ne√_x00B3_n_x0020_azul{fill:none;stroke:#8AACDA;stroke-width:7;stroke-linecap:round;stroke-linejoin:round;}
	.Resalte_x0020_cromado{fill:url(#SVGID_1_);stroke:#FFFFFF;stroke-width:0.3629;stroke-miterlimit:1;}
	.A_x0020_todo_x0020_ritmo_GS{fill:#FFDD00;}
	.Alyssa_GS{fill:#A6D0E4;}
	.st0{fill:#FBB800;}
</style>
<linearGradient id="SVGID_1_" gradientUnits="userSpaceOnUse" x1="-842.4243" y1="-500.3636" x2="-842.4243" y2="-501.3636">
	<stop  offset="0" style="stop-color:#656565"/>
	<stop  offset="0.618" style="stop-color:#1B1B1B"/>
	<stop  offset="0.6292" style="stop-color:#545454"/>
	<stop  offset="0.9831" style="stop-color:#3E3E3E"/>
</linearGradient>
<g>
	<g>
		<path d="M28.4,24h20.1l-1.4,5.3H32.8l-1.5,5.5h12.5l-1.4,5.2H30l-1.5,5.7h14.4l-1.4,5.3H21.2L28.4,24z"/>
		<path d="M51.1,24h5.5l7.8,17.1L69,24h5.8l-7.2,26.9h-5l-8.1-17.6l-4.7,17.6h-5.8L51.1,24z"/>
		<path d="M73.3,39.6c0-8.6,7.3-16.1,16.4-16.1c5.1,0,8.6,2.2,10.8,5.7l-4.9,3.4c-1.6-2.2-3.4-3.7-6.6-3.7c-4.9,0-9.5,4.7-9.5,10.4
			c0,3.9,2.7,6.5,6.6,6.5c2.6,0,4.3-1,6.3-2.7l3.8,4c-2.6,2.4-5.7,4.1-10.2,4.1C78.6,51.3,73.3,46.8,73.3,39.6z"/>
		<path d="M97.5,39.4c0-8,6.5-15.9,16.2-15.9c7.4,0,12.3,5.1,12.3,11.9c0,8-6.5,15.9-16.2,15.9C102.4,51.3,97.5,46.2,97.5,39.4z
			 M119.8,35.8c0-4-2.4-6.8-6.8-6.8c-5.6,0-9.3,5.4-9.3,10.1c0,4,2.4,6.8,6.8,6.8C116.1,45.9,119.8,40.5,119.8,35.8z"/>
	</g>
	<g>
		<polygon class="st0" points="151.7,24 141.7,35.4 137.8,24 131.7,24 124.5,50.9 130.4,50.9 135.1,33.4 139.4,44.8 139.5,44.8 
			150.1,33.3 145.4,50.9 151.4,50.9 158.6,24 		"/>
		<path class="st0" d="M194.8,37.6l18.8-20.3H206l-13.7,15.4l-3.4-8.6h-6.6l5.3,12l3.1-1.8l-3.3,3.5l-7.2,7.8l-3.4-21.6h-5.7
			l-18.8,27.1h6.4l4.1-6h11.4l0.8,6h6.1l0,0h1.6l5.7-6.2v0l0,0l2.3-2.5l0,0L194.8,37.6L194.8,37.6z M166.3,39.6l5.9-8.9l1.2,8.9
			H166.3z"/>
		<polygon class="st0" points="190.8,42.6 199.9,62 206.6,62 195.4,38.8 		"/>
	</g>
</g>
</svg>
